<svg width="531" height="531" viewBox="0 0 531 531" fill="none" xmlns="http://www.w3.org/2000/svg">
<circle cx="265.1" cy="265.1" r="265.1" fill="#FFF3D9"/>
<path d="M256.955 3.28029C168.421 8.74695 92.1547 50.347 47.2214 117.414C37.6214 131.68 32.9547 139.814 24.2881 157.814C-6.51192 220.88 -8.11193 300.214 20.0214 365.014C34.1547 397.68 54.9547 427.28 80.9548 452.08C116.955 486.347 160.021 509.947 204.955 520.214C240.421 528.214 283.221 528.747 320.288 521.547C375.088 511.014 425.221 481.947 465.355 437.68C493.888 406.08 513.488 368.48 523.621 325.68C529.621 300.08 530.688 290.48 530.021 260.747C529.488 236.614 528.955 231.547 525.088 213.68C517.888 179.947 508.288 155.014 492.555 129.28C472.155 95.947 446.955 69.947 412.021 46.6137C395.621 35.4137 385.888 30.4803 363.888 21.8137C331.755 9.01367 287.355 1.41362 256.955 3.28029ZM282.555 52.6137C298.821 58.2137 312.821 67.4137 326.955 81.547C340.021 94.6137 347.488 106.08 354.021 122.48C357.888 132.08 360.688 143.68 359.088 143.68C358.688 143.68 357.355 142.614 356.021 141.28C346.955 132.214 332.555 122.747 322.288 118.88C311.355 114.88 307.088 114.214 282.288 112.347C244.821 109.547 223.088 102.747 205.488 88.0803C198.555 82.347 188.955 70.347 188.955 67.8137C188.955 67.4137 192.688 64.747 197.355 62.0803C216.821 50.4803 228.821 47.547 253.621 48.2136C268.688 48.6136 272.421 49.147 282.555 52.6137ZM172.955 107.28C180.288 119.014 186.955 125.814 198.688 133.547C213.888 143.68 241.755 154.347 252.688 154.347C255.088 154.347 255.621 155.147 255.621 158.747C255.621 174.88 268.421 202.88 282.421 217.68C292.955 228.747 301.221 233.947 320.421 241.814C337.221 248.614 342.955 252.347 351.621 262.08C362.555 274.214 370.021 292.347 372.955 313.014C375.221 329.28 374.821 362.747 372.288 374.347C369.755 385.814 359.755 407.68 351.888 419.147C335.088 443.947 310.555 462.747 283.621 471.414C272.288 475.147 253.355 478.347 243.088 478.347C223.088 478.347 195.355 471.68 176.288 462.347C148.421 448.614 115.755 416.48 107.621 394.747C101.221 377.547 99.3548 357.28 102.821 343.814C106.288 331.147 107.355 332.347 109.488 351.547C111.221 366.614 112.821 370.347 116.955 370.347C120.021 370.347 120.955 367.68 120.955 358.88C120.955 351.147 122.421 349.814 125.488 354.614C127.888 358.614 128.688 362.347 130.288 377.147C131.888 393.547 136.688 403.28 148.021 413.814C163.088 427.947 179.888 434.48 200.821 434.48C215.621 434.48 222.688 432.747 238.155 425.414C248.155 420.614 252.555 417.547 260.155 409.947C275.221 394.747 283.088 378.214 291.888 343.814C298.155 318.747 300.555 312.747 315.755 281.28C322.288 267.947 327.621 256.614 327.621 256.214C327.621 255.68 326.688 256.08 325.621 257.014C324.555 257.814 323.221 258.214 322.555 257.814C319.621 256.08 309.088 271.547 298.421 292.88C292.288 305.28 285.355 326.614 280.288 349.014C276.555 365.414 270.021 382.347 267.488 382.347C266.955 382.347 264.955 379.68 263.221 376.614C252.155 357.947 228.821 349.68 207.088 357.014C202.288 358.614 197.755 359.547 197.088 359.014C195.888 358.347 193.488 349.414 194.021 347.814C194.155 347.547 196.421 347.014 199.221 346.747C206.821 345.947 218.155 340.88 226.421 334.614C234.821 328.214 245.355 315.68 248.421 308.08C251.088 301.68 250.155 291.68 246.288 286.347L243.488 282.48L247.888 280.614C253.888 278.08 263.088 267.68 267.355 258.614C270.555 251.947 270.955 249.28 270.955 237.68C270.955 223.28 269.621 219.28 263.221 215.014C260.421 213.147 259.621 213.147 255.888 215.147C250.021 217.947 234.421 222.347 229.888 222.347C227.888 222.347 224.555 221.547 222.555 220.48C219.088 218.614 202.288 201.68 198.288 195.814C196.821 193.547 194.421 192.614 188.688 192.08L180.955 191.28V181.147C180.955 168.614 179.621 163.814 172.021 147.28C166.821 136.08 165.888 132.614 165.355 123.147C164.555 111.947 165.621 99.6803 167.355 99.6803C167.888 99.8136 170.421 103.147 172.955 107.28ZM146.821 212.48C158.821 216.614 165.888 225.947 170.288 243.414C171.221 247.014 173.621 251.014 177.088 254.48C182.021 259.414 182.288 260.08 182.288 268.347C182.288 285.147 171.755 297.014 156.821 297.014C154.821 297.014 151.888 298.214 150.155 299.547C147.355 301.947 147.221 302.347 148.955 304.214C151.488 306.747 184.421 311.014 192.688 309.814C201.888 308.614 210.155 304.214 218.421 296.347C227.088 288.08 230.688 287.28 236.155 292.347C242.021 297.68 240.955 303.414 232.555 313.28C215.355 333.547 201.355 338.614 172.021 335.147L162.288 334.08V338.214C162.288 341.814 163.088 342.747 166.688 344.214C168.955 345.28 173.488 346.48 176.688 347.014C180.955 347.68 182.288 348.48 182.288 350.48C182.288 351.947 183.488 356.48 184.955 360.747L187.621 368.347L184.955 371.68C179.221 379.014 175.221 386.747 174.555 392.48C174.021 397.814 174.155 398.347 176.821 398.347C178.688 398.347 180.555 396.88 182.021 394.214C188.421 382.614 194.288 376.08 201.888 372.08C225.755 359.414 246.155 365.547 256.821 388.48L259.888 395.28L253.488 401.28C242.021 411.947 237.888 415.014 237.355 413.414C235.888 409.147 231.221 405.014 227.621 405.014C223.088 405.014 221.355 407.014 220.688 412.88C220.021 419.814 214.955 422.88 203.088 423.414C185.088 424.347 169.755 418.614 156.155 405.947C145.355 395.947 142.955 390.48 140.421 371.414C139.221 361.947 137.355 353.814 135.755 350.614C132.688 344.48 126.421 339.414 121.488 339.147C117.621 339.014 117.488 337.014 120.421 321.414C121.488 315.414 122.288 307.814 122.021 304.747C121.621 299.147 121.355 298.88 113.355 295.014C103.221 290.214 95.2214 282.614 90.5547 273.68C87.7547 268.347 86.9547 264.614 86.5547 254.747C86.0214 243.947 86.2881 241.814 89.2214 235.414C93.7547 225.414 99.8881 219.014 108.421 215.014C121.755 208.614 133.355 207.947 146.821 212.48Z" fill="#F4B6C2"/>
<path d="M256.955 3.28003C168.421 8.7467 92.1547 50.3467 47.2214 117.413C37.6214 131.68 32.9547 139.813 24.2881 157.813C-6.51192 220.88 -8.11193 300.213 20.0214 365.013C34.1547 397.68 54.9547 427.28 80.9548 452.08C116.955 486.347 160.021 509.947 204.955 520.213C240.421 528.213 283.221 528.747 320.288 521.547C375.088 511.013 425.221 481.947 465.355 437.68C493.888 406.08 513.488 368.48 523.621 325.68C529.621 300.08 530.688 290.48 530.021 260.747C529.488 236.613 528.955 231.547 525.088 213.68C517.888 179.947 508.288 155.013 492.555 129.28C472.155 95.9467 446.955 69.9467 412.021 46.6134C395.621 35.4134 385.888 30.4801 363.888 21.8134C331.755 9.01338 287.355 1.41336 256.955 3.28003ZM301.888 17.6801C383.621 28.3467 459.088 82.7467 493.488 156.08C501.755 173.68 509.621 192.88 508.688 193.68C508.421 193.947 505.221 193.413 501.621 192.347C492.555 189.547 486.688 189.947 478.555 193.68C472.955 196.347 470.688 198.347 466.555 204.88C462.155 212.213 461.355 212.88 458.288 211.947C456.421 211.413 450.821 211.013 445.621 211.013C436.955 211.013 435.755 211.413 428.288 216.347C421.221 221.147 419.621 222.88 414.688 233.013C407.488 247.28 404.421 261.68 406.821 268.747C409.888 277.413 411.888 275.013 418.955 253.947C424.955 236.213 426.155 233.547 431.088 229.013C437.221 223.413 445.488 220.48 451.221 221.813C453.221 222.347 458.555 224.747 463.088 227.147C467.621 229.547 471.755 231.147 472.155 230.747C472.555 230.213 472.955 226.613 472.955 222.613C472.955 216.747 473.621 214.347 476.421 210.747C482.555 202.747 492.555 200.08 500.821 204.213C505.888 206.88 512.821 215.013 513.621 219.413C514.021 221.413 515.355 225.68 516.421 229.013C517.755 232.613 518.821 241.947 519.221 252.88L520.021 270.747L516.821 269.813C509.221 267.547 496.021 267.413 488.688 269.547C480.021 271.947 469.221 280.88 465.621 288.48C463.621 292.747 463.221 293.013 461.221 291.28C459.888 290.213 456.288 287.813 452.955 285.947C445.755 281.813 427.221 279.147 418.821 281.013C411.957 282.014 410.457 283.014 410.457 283.014C410.457 283.014 404.288 286.747 395.888 290.48C390.955 292.747 385.621 295.68 384.155 297.147L381.221 299.813L380.288 294.747C377.621 280.08 365.621 260.48 351.221 246.747C342.821 238.747 339.755 236.747 328.821 232.613C313.621 226.613 301.488 219.68 293.755 212.213C282.021 201.013 270.688 180.347 267.888 165.28C266.421 157.147 265.888 157.28 281.755 160.347C305.888 164.88 312.155 167.147 322.288 174.48C338.155 185.947 347.621 199.68 358.155 226.747C364.288 242.347 374.555 261.413 378.955 265.013C379.888 265.813 381.755 266.613 383.088 267.013C384.555 267.28 386.688 267.813 388.021 268.347C391.221 269.68 390.821 268.48 386.955 264.213C383.355 260.347 376.688 247.147 372.955 236.347C365.488 215.013 363.621 210.347 360.288 203.68C350.821 184.613 333.088 166.08 316.421 157.68C307.088 153.013 303.088 152.08 271.621 147.013C220.421 138.88 188.021 119.547 178.421 91.5467C176.288 85.0134 176.155 83.8134 177.888 80.6134L179.755 76.8801L184.821 83.2801C205.088 108.88 233.221 121.013 278.955 123.813C311.355 125.813 326.288 130.613 343.621 145.013C362.955 161.147 374.555 183.147 386.421 225.413C393.888 252.48 395.355 256.213 399.088 257.947L402.421 259.547L401.621 251.947C399.488 233.413 394.955 210.08 391.355 199.68C389.221 193.413 383.621 180.48 378.955 171.013C371.355 155.28 370.555 152.88 370.421 144.613C370.021 125.147 358.555 99.5467 341.355 79.4134C308.821 41.4134 260.688 27.0134 214.555 41.6801C195.355 47.8134 174.288 63.5467 165.088 78.8801C156.421 93.2801 153.888 102.613 153.755 119.68C153.621 136.613 153.755 137.28 163.488 156.88C169.488 169.147 169.621 169.813 170.021 183.947C170.555 200.747 171.755 202.347 182.555 202.347C188.421 202.347 189.088 202.613 190.688 206.747C191.755 209.147 195.088 212.747 198.021 214.88C201.088 216.88 205.088 220.747 206.955 223.147C215.755 234.613 235.488 236.613 252.821 227.813C255.755 226.213 258.555 225.013 258.955 225.013C259.355 225.013 259.621 230.613 259.621 237.413C259.621 254.48 257.355 260.48 247.355 270.48L239.355 278.347H231.088C221.488 278.347 216.688 280.747 210.288 288.88C207.621 292.213 203.755 295.013 200.421 296.213C193.355 298.747 182.688 300.08 181.755 298.613C181.355 297.947 182.821 295.813 184.955 293.68C190.821 288.08 194.688 277.813 193.888 269.813C193.621 266.213 193.888 261.28 194.555 258.747C196.155 252.88 194.155 249.413 187.621 246.88C183.088 245.013 182.288 244.08 180.821 237.947C176.955 221.547 168.421 210.213 154.555 203.413C146.155 199.28 144.955 199.013 130.955 199.013C116.688 199.013 116.021 199.147 106.955 203.947C96.6881 209.147 85.6214 219.813 81.0881 228.747C77.0881 236.48 74.0214 252.48 74.9548 259.68C77.4881 278.747 87.2214 293.013 102.955 301.147L111.755 305.68L110.821 312.347C109.621 321.68 108.155 325.013 105.088 325.013C101.221 325.013 94.6881 333.413 92.2881 341.28C89.3548 351.28 89.6214 373.947 92.8214 386.613C99.6214 413.28 121.621 440.613 153.888 462.747C172.021 475.147 191.088 482.613 216.155 487.013C232.821 490.08 259.221 489.147 274.555 485.147C317.888 473.813 354.821 443.147 373.755 402.613C380.955 387.147 383.488 378.88 384.688 365.547L385.621 355.013L392.555 354.08C399.888 353.013 403.355 353.947 424.421 362.88C428.955 364.747 437.355 367.013 443.088 367.813C462.688 370.48 477.621 366.88 496.288 354.88C500.421 352.347 504.155 350.48 504.688 350.88C505.888 352.213 492.955 377.147 490.555 377.947C489.355 378.347 483.355 381.147 477.221 384.08C467.355 388.88 464.821 389.547 454.288 390.08C441.755 390.747 429.221 387.947 417.621 381.947C410.288 378.213 397.088 377.947 393.088 381.547C388.555 385.68 389.621 387.28 397.755 388.213C401.755 388.613 410.421 391.147 416.821 393.547C423.221 396.08 433.355 399.147 439.355 400.347C452.555 403.013 463.755 401.813 475.355 396.213C479.488 394.08 483.488 392.213 484.155 391.947C486.288 390.88 478.821 403.147 470.821 413.947C461.221 426.613 438.288 449.947 425.488 460.08C379.888 495.813 332.288 513.28 274.288 515.28C235.755 516.613 198.155 509.413 164.421 494.213C101.488 465.813 53.8881 417.547 28.9547 356.88C17.0881 327.947 11.6214 299.413 11.6214 265.947C11.6214 224.88 19.0881 192.88 37.2214 156.48C63.0881 104.747 99.4881 67.6801 148.288 43.6801C176.688 29.6801 202.688 21.2801 228.821 17.6801C246.821 15.2801 282.955 15.2801 301.888 17.6801ZM282.555 52.6134C298.821 58.2134 312.821 67.4134 326.955 81.5467C340.021 94.6134 347.488 106.08 354.021 122.48C357.888 132.08 360.688 143.68 359.088 143.68C358.688 143.68 357.355 142.613 356.021 141.28C346.955 132.213 332.555 122.747 322.288 118.88C311.355 114.88 307.088 114.213 282.288 112.347C244.821 109.547 223.088 102.747 205.488 88.08C198.555 82.3467 188.955 70.3467 188.955 67.8134C188.955 67.4134 192.688 64.7467 197.355 62.08C216.821 50.48 228.821 47.5467 253.621 48.2134C268.688 48.6134 272.421 49.1467 282.555 52.6134ZM172.955 107.28C180.288 119.013 186.955 125.813 198.688 133.547C213.888 143.68 241.755 154.347 252.688 154.347C255.088 154.347 255.621 155.147 255.621 158.747C255.621 174.88 268.421 202.88 282.421 217.68C292.955 228.747 301.221 233.947 320.421 241.813C337.221 248.613 342.955 252.347 351.621 262.08C362.555 274.213 370.021 292.347 372.955 313.013C375.221 329.28 374.821 362.747 372.288 374.347C369.755 385.813 359.755 407.68 351.888 419.147C335.088 443.947 310.555 462.747 283.621 471.413C272.288 475.147 253.355 478.347 243.088 478.347C223.088 478.347 195.355 471.68 176.288 462.347C148.421 448.613 115.755 416.48 107.621 394.747C101.221 377.547 99.3548 357.28 102.821 343.813C106.288 331.147 107.355 332.347 109.488 351.547C111.221 366.613 112.821 370.347 116.955 370.347C120.021 370.347 120.955 367.68 120.955 358.88C120.955 351.147 122.421 349.813 125.488 354.613C127.888 358.613 128.688 362.347 130.288 377.147C131.888 393.547 136.688 403.28 148.021 413.813C163.088 427.947 179.888 434.48 200.821 434.48C215.621 434.48 222.688 432.747 238.155 425.413C248.155 420.613 252.555 417.547 260.155 409.947C275.221 394.747 283.088 378.213 291.888 343.813C298.155 318.747 300.555 312.747 315.755 281.28C322.288 267.947 327.621 256.613 327.621 256.213C327.621 255.68 326.688 256.08 325.621 257.013C324.555 257.813 323.221 258.213 322.555 257.813C319.621 256.08 309.088 271.547 298.421 292.88C292.288 305.28 285.355 326.613 280.288 349.013C276.555 365.413 270.021 382.347 267.488 382.347C266.955 382.347 264.955 379.68 263.221 376.613C252.155 357.947 228.821 349.68 207.088 357.013C202.288 358.613 197.755 359.547 197.088 359.013C195.888 358.347 193.488 349.413 194.021 347.813C194.155 347.547 196.421 347.013 199.221 346.747C206.821 345.947 218.155 340.88 226.421 334.613C234.821 328.213 245.355 315.68 248.421 308.08C251.088 301.68 250.155 291.68 246.288 286.347L243.488 282.48L247.888 280.613C253.888 278.08 263.088 267.68 267.355 258.613C270.555 251.947 270.955 249.28 270.955 237.68C270.955 223.28 269.621 219.28 263.221 215.013C260.421 213.147 259.621 213.147 255.888 215.147C250.021 217.947 234.421 222.347 229.888 222.347C227.888 222.347 224.555 221.547 222.555 220.48C219.088 218.613 202.288 201.68 198.288 195.813C196.821 193.547 194.421 192.613 188.688 192.08L180.955 191.28V181.147C180.955 168.613 179.621 163.813 172.021 147.28C166.821 136.08 165.888 132.613 165.355 123.147C164.555 111.947 165.621 99.6801 167.355 99.6801C167.888 99.8134 170.421 103.147 172.955 107.28ZM146.821 212.48C158.821 216.613 165.888 225.947 170.288 243.413C171.221 247.013 173.621 251.013 177.088 254.48C182.021 259.413 182.288 260.08 182.288 268.347C182.288 285.147 171.755 297.013 156.821 297.013C154.821 297.013 151.888 298.213 150.155 299.547C147.355 301.947 147.221 302.347 148.955 304.213C151.488 306.747 184.421 311.013 192.688 309.813C201.888 308.613 210.155 304.213 218.421 296.347C227.088 288.08 230.688 287.28 236.155 292.347C242.021 297.68 240.955 303.413 232.555 313.28C215.355 333.547 201.355 338.613 172.021 335.147L162.288 334.08V338.213C162.288 341.813 163.088 342.747 166.688 344.213C168.955 345.28 173.488 346.48 176.688 347.013C180.955 347.68 182.288 348.48 182.288 350.48C182.288 351.947 183.488 356.48 184.955 360.747L187.621 368.347L184.955 371.68C179.221 379.013 175.221 386.747 174.555 392.48C174.021 397.813 174.155 398.347 176.821 398.347C178.688 398.347 180.555 396.88 182.021 394.213C188.421 382.613 194.288 376.08 201.888 372.08C225.755 359.413 246.155 365.547 256.821 388.48L259.888 395.28L253.488 401.28C242.021 411.947 237.888 415.013 237.355 413.413C235.888 409.147 231.221 405.013 227.621 405.013C223.088 405.013 221.355 407.013 220.688 412.88C220.021 419.813 214.955 422.88 203.088 423.413C185.088 424.347 169.755 418.613 156.155 405.947C145.355 395.947 142.955 390.48 140.421 371.413C139.221 361.947 137.355 353.813 135.755 350.613C132.688 344.48 126.421 339.413 121.488 339.147C117.621 339.013 117.488 337.013 120.421 321.413C121.488 315.413 122.288 307.813 122.021 304.747C121.621 299.147 121.355 298.88 113.355 295.013C103.221 290.213 95.2214 282.613 90.5547 273.68C87.7547 268.347 86.9547 264.613 86.5547 254.747C86.0214 243.947 86.2881 241.813 89.2214 235.413C93.7547 225.413 99.8881 219.013 108.421 215.013C121.755 208.613 133.355 207.947 146.821 212.48ZM514.955 280.88C518.421 282.88 518.955 283.947 518.688 288.48C518.021 300.48 517.355 301.813 510.555 304.613C507.088 306.08 500.155 310.08 495.088 313.413C481.088 322.747 473.221 325.413 458.955 325.547C447.488 325.68 446.421 325.413 434.821 319.947C426.555 316.08 420.955 314.347 416.955 314.347H411.355L415.088 319.28C420.555 326.613 421.088 327.013 428.288 330.347C439.088 335.147 447.621 337.013 459.888 337.013C474.421 337.013 484.021 333.68 499.755 323.147C511.621 315.147 516.421 313.68 515.088 318.347C514.688 319.813 513.888 322.347 513.488 323.947C510.421 334.747 507.221 341.013 504.821 341.013C503.355 341.013 496.155 344.08 488.555 347.813C481.088 351.68 472.021 355.547 468.288 356.48C454.555 360.213 441.088 358.08 421.888 349.547C410.955 344.48 402.821 343.413 392.155 345.28L386.688 346.347L385.755 330.213L384.821 313.947L389.755 308.88C392.555 306.08 397.488 302.747 400.821 301.547C404.288 300.347 410.688 297.68 415.088 295.547C427.755 289.547 436.421 290.08 450.555 297.413C456.688 300.613 463.355 303.68 465.355 304.213C468.821 305.013 469.221 304.613 471.888 298.747C475.088 291.28 478.021 287.28 483.088 283.28C491.088 277.013 506.421 275.813 514.955 280.88Z" fill="#5E5E5E"/>
<path d="M216.156 157.68C211.756 167.013 203.09 169.147 195.623 162.88C190.023 158.08 188.29 159.947 190.556 168.08C192.023 173.68 192.556 174.347 195.89 174.347C198.956 174.347 199.623 174.88 199.623 177.813C199.623 180.747 200.156 181.147 203.356 180.747C206.156 180.48 207.09 179.547 207.356 176.613C207.89 172.48 208.556 172.213 211.49 174.88C212.69 175.813 215.09 177.147 216.823 177.68C220.023 178.613 220.023 178.48 219.223 172.48C218.423 166.613 218.556 166.347 221.623 166.347C223.356 166.347 225.223 165.68 225.623 164.88C227.623 161.813 223.09 153.013 219.623 153.013C218.956 153.013 217.356 155.147 216.156 157.68Z" fill="#5E5E5E"/>
<path d="M156.957 254.48C156.957 257.814 160.29 259.947 165.224 259.414C168.824 259.147 169.757 258.347 170.024 255.68C170.424 252.48 170.024 252.347 163.624 252.214C158.157 252.214 156.957 252.614 156.957 254.48Z" fill="#5E5E5E"/>
<path d="M118.688 257.547C116.421 258.614 113.488 261.014 112.288 262.881C105.088 273.814 108.155 287.014 119.088 291.814C128.555 296.081 138.288 293.147 138.288 286.081C138.288 283.681 137.755 283.547 131.888 284.347C126.555 285.014 124.955 284.747 121.888 282.347C117.488 278.881 117.088 272.881 121.088 268.881C123.488 266.481 124.821 266.214 129.755 267.014C135.355 267.814 135.621 267.681 135.621 264.614C135.621 257.947 126.421 254.081 118.688 257.547Z" fill="#5E5E5E"/>
</svg>
